<svg viewBox="0 0 24 24" xmlns="http://www.w3.org/2000/svg">
    <path d="M12 20.9995C9.48333 20.9995 7.35417 20.1286 5.6125 18.387C3.87083 16.6453 3 14.5161 3 11.9995C3 9.69947 3.75 7.70363 5.25 6.01197C6.75 4.3203 8.66667 3.3328 11 3.04947C11.2167 3.01613 11.4083 3.0453 11.575 3.13697C11.7417 3.22863 11.875 3.34947 11.975 3.49947C12.075 3.64947 12.1292 3.82447 12.1375 4.02447C12.1458 4.22447 12.0833 4.41613 11.95 4.59947C11.6667 5.0328 11.4542 5.49113 11.3125 5.97447C11.1708 6.4578 11.1 6.96613 11.1 7.49947C11.1 8.99947 11.625 10.2745 12.675 11.3245C13.725 12.3745 15 12.8995 16.5 12.8995C17.0167 12.8995 17.5292 12.8245 18.0375 12.6745C18.5458 12.5245 19 12.3161 19.4 12.0495C19.5833 11.9328 19.7708 11.8786 19.9625 11.887C20.1542 11.8953 20.325 11.9411 20.475 12.0245C20.6417 12.1078 20.7708 12.2328 20.8625 12.3995C20.9542 12.5661 20.9833 12.7661 20.95 12.9995C20.7167 15.2995 19.7375 17.2078 18.0125 18.7245C16.2875 20.2411 14.2833 20.9995 12 20.9995ZM12 18.9995C13.4667 18.9995 14.7833 18.5953 15.95 17.787C17.1167 16.9786 17.9667 15.9245 18.5 14.6245C18.1667 14.7078 17.8333 14.7745 17.5 14.8245C17.1667 14.8745 16.8333 14.8995 16.5 14.8995C14.45 14.8995 12.7042 14.1786 11.2625 12.737C9.82083 11.2953 9.1 9.54947 9.1 7.49947C9.1 7.16613 9.125 6.8328 9.175 6.49947C9.225 6.16613 9.29167 5.8328 9.375 5.49947C8.075 6.0328 7.02083 6.8828 6.2125 8.04947C5.40417 9.21613 5 10.5328 5 11.9995C5 13.9328 5.68333 15.5828 7.05 16.9495C8.41667 18.3161 10.0667 18.9995 12 18.9995Z" />
</svg>
