<svg width="156" height="35" viewBox="0 0 156 35" fill="none" xmlns="http://www.w3.org/2000/svg">
<path d="M13.3653 13.8735C12.8142 13.1632 12.208 12.6672 11.5467 12.3856C10.8853 12.1039 10.1689 11.963 9.39738 11.963C7.85431 11.963 6.64802 12.5325 5.77851 13.6715C4.909 14.7981 4.47424 16.4698 4.47424 18.6864C4.47424 19.8376 4.57221 20.8235 4.76816 21.644C4.9641 22.4523 5.24578 23.1136 5.61318 23.628C5.98057 24.1423 6.42758 24.5158 6.95418 24.7485C7.48079 24.9812 8.07475 25.0976 8.73606 25.0976C9.74029 25.0976 10.6037 24.8832 11.3262 24.4546C12.061 24.0137 12.7407 23.3953 13.3653 22.5992V13.8735ZM17.3148 0.8125V28H14.9267C14.4001 28 14.0633 27.7489 13.9164 27.2468L13.5674 25.2078C12.7836 26.1263 11.8896 26.8672 10.8853 27.4305C9.89337 27.9939 8.73606 28.2755 7.41343 28.2755C6.36022 28.2755 5.40498 28.0674 4.54772 27.651C3.69046 27.2223 2.95566 26.6039 2.34333 25.7956C1.731 24.9873 1.25338 23.9892 0.910473 22.8013C0.579814 21.6011 0.414485 20.2295 0.414485 18.6864C0.414485 17.2903 0.598184 15.9983 0.965583 14.8104C1.34523 13.6225 1.88408 12.5937 2.58214 11.7242C3.28019 10.8425 4.12521 10.1567 5.11719 9.66681C6.12141 9.1647 7.24198 8.91364 8.47889 8.91364C9.58108 8.91364 10.5179 9.09122 11.2895 9.44637C12.061 9.78927 12.753 10.273 13.3653 10.8976V0.8125H17.3148ZM32.0825 8.96875C33.4664 8.96875 34.7155 9.19531 35.83 9.64844C36.9567 10.1016 37.9119 10.7445 38.6957 11.5773C39.4917 12.4101 40.1041 13.4204 40.5327 14.6083C40.9613 15.7962 41.1756 17.1311 41.1756 18.613C41.1756 20.0948 40.9613 21.4297 40.5327 22.6176C40.1041 23.8055 39.4917 24.822 38.6957 25.667C37.9119 26.4998 36.9567 27.1427 35.83 27.5959C34.7155 28.049 33.4664 28.2755 32.0825 28.2755C30.6864 28.2755 29.425 28.049 28.2983 27.5959C27.1839 27.1427 26.2286 26.4998 25.4326 25.667C24.6366 24.822 24.0242 23.8055 23.5956 22.6176C23.167 21.4297 22.9527 20.0948 22.9527 18.613C22.9527 17.1311 23.167 15.7962 23.5956 14.6083C24.0242 13.4204 24.6366 12.4101 25.4326 11.5773C26.2286 10.7445 27.1839 10.1016 28.2983 9.64844C29.425 9.19531 30.6864 8.96875 32.0825 8.96875ZM32.0825 25.1894C33.7726 25.1894 35.0278 24.6261 35.8484 23.4994C36.6811 22.3604 37.0975 20.7378 37.0975 18.6313C37.0975 16.5249 36.6811 14.9022 35.8484 13.7633C35.0278 12.6121 33.7726 12.0365 32.0825 12.0365C30.368 12.0365 29.0943 12.6121 28.2616 13.7633C27.4288 14.9022 27.0124 16.5249 27.0124 18.6313C27.0124 20.7378 27.4288 22.3604 28.2616 23.4994C29.0943 24.6261 30.368 25.1894 32.0825 25.1894ZM57.9947 12.6611C57.8968 12.8326 57.7866 12.955 57.6641 13.0285C57.5416 13.102 57.3885 13.1387 57.2048 13.1387C56.9966 13.1387 56.7701 13.0775 56.5252 12.955C56.2802 12.8203 55.9924 12.6734 55.6618 12.5141C55.3311 12.3549 54.9392 12.2141 54.4861 12.0916C54.0452 11.9569 53.5247 11.8896 52.9246 11.8896C52.4348 11.8896 51.9878 11.9508 51.5836 12.0733C51.1917 12.1835 50.855 12.3488 50.5733 12.5693C50.3039 12.7774 50.0957 13.0285 49.9487 13.3224C49.8018 13.6041 49.7283 13.9103 49.7283 14.2409C49.7283 14.6818 49.863 15.0492 50.1324 15.3431C50.4018 15.637 50.757 15.8942 51.1979 16.1147C51.6388 16.3228 52.1409 16.5127 52.7042 16.6841C53.2676 16.8556 53.8431 17.0393 54.431 17.2352C55.0188 17.4312 55.5944 17.6577 56.1578 17.9149C56.7211 18.1721 57.2232 18.4905 57.6641 18.8701C58.105 19.2375 58.4601 19.6907 58.7295 20.2295C58.999 20.7561 59.1337 21.3991 59.1337 22.1584C59.1337 23.0401 58.9745 23.8545 58.6561 24.6016C58.3377 25.3486 57.8723 25.9977 57.26 26.5488C56.6476 27.0999 55.8822 27.5285 54.9637 27.8347C54.0575 28.1408 53.0165 28.2939 51.8408 28.2939C51.1917 28.2939 50.561 28.2327 49.9487 28.1102C49.3486 28 48.773 27.8469 48.2219 27.651C47.6831 27.4428 47.1749 27.1978 46.6972 26.9162C46.2319 26.6345 45.8155 26.3283 45.4481 25.9977L46.3666 24.4913C46.4768 24.3076 46.6115 24.1668 46.7707 24.0688C46.9422 23.9586 47.1504 23.9035 47.3953 23.9035C47.6525 23.9035 47.9035 23.9892 48.1485 24.1607C48.4056 24.3199 48.6996 24.4975 49.0302 24.6934C49.3731 24.8894 49.7834 25.0731 50.261 25.2445C50.7386 25.4037 51.3326 25.4833 52.0429 25.4833C52.6307 25.4833 53.139 25.416 53.5676 25.2813C53.9962 25.1343 54.3514 24.9383 54.6331 24.6934C54.9147 24.4485 55.1229 24.1729 55.2576 23.8668C55.3923 23.5484 55.4597 23.2116 55.4597 22.8564C55.4597 22.3788 55.325 21.9869 55.0556 21.6807C54.7861 21.3746 54.4249 21.1113 53.9717 20.8908C53.5309 20.6704 53.0226 20.4745 52.447 20.303C51.8837 20.1315 51.3081 19.9478 50.7203 19.7519C50.1324 19.556 49.5507 19.3294 48.9751 19.0722C48.4118 18.815 47.9035 18.4905 47.4504 18.0986C47.0095 17.6945 46.6544 17.2107 46.3849 16.6474C46.1155 16.0718 45.9808 15.3737 45.9808 14.5532C45.9808 13.8062 46.1278 13.0959 46.4217 12.4223C46.7279 11.7487 47.1687 11.1548 47.7443 10.6404C48.3322 10.1261 49.0486 9.72192 49.8936 9.428C50.7509 9.12183 51.7367 8.96875 52.8512 8.96875C54.1126 8.96875 55.2576 9.17082 56.2863 9.57496C57.3151 9.9791 58.1784 10.5302 58.8765 11.2283L57.9947 12.6611ZM80.9483 9.26267L70.6244 33.3273C70.4897 33.609 70.3243 33.8294 70.1284 33.9886C69.9447 34.1478 69.6569 34.2274 69.265 34.2274H66.3442L69.7977 26.7325L62.1558 9.26267H65.591C65.9217 9.26267 66.1727 9.34227 66.3442 9.50148C66.5279 9.64844 66.6626 9.82601 66.7483 10.0342L71.2122 20.6704C71.3224 20.9766 71.4204 21.2827 71.5061 21.5889C71.6041 21.8828 71.6959 22.189 71.7817 22.5074C71.8796 22.189 71.9776 21.8767 72.0756 21.5705C72.1736 21.2644 72.2838 20.9582 72.4062 20.652L76.6864 10.0342C76.7722 9.81377 76.913 9.63007 77.1089 9.48311C77.3171 9.33615 77.5437 9.26267 77.7886 9.26267H80.9483ZM85.3556 28V9.26267H87.7437C88.2826 9.26267 88.6255 9.51372 88.7724 10.0158L89.0296 11.6508C89.3725 11.2589 89.7277 10.9037 90.0951 10.5853C90.4625 10.2546 90.8543 9.97297 91.2707 9.74029C91.6994 9.49535 92.1525 9.30553 92.6301 9.17082C93.12 9.03611 93.6466 8.96875 94.2099 8.96875C94.81 8.96875 95.3611 9.05448 95.8632 9.22593C96.3653 9.39738 96.8062 9.64231 97.1858 9.96073C97.5777 10.2791 97.9145 10.6649 98.1962 11.118C98.4779 11.5712 98.7106 12.0794 98.8943 12.6427C99.1759 11.9937 99.5311 11.4364 99.9597 10.9711C100.388 10.5057 100.866 10.1261 101.393 9.83214C101.919 9.53822 102.476 9.3239 103.064 9.18919C103.664 9.04223 104.271 8.96875 104.883 8.96875C105.887 8.96875 106.781 9.12796 107.565 9.44637C108.361 9.76478 109.028 10.2302 109.567 10.8425C110.118 11.4426 110.535 12.1835 110.816 13.0652C111.098 13.947 111.239 14.9512 111.239 16.0779V28H107.289V16.0779C107.289 14.7553 107.002 13.7633 106.426 13.102C105.863 12.4284 105.024 12.0916 103.909 12.0916C103.407 12.0916 102.936 12.1774 102.495 12.3488C102.054 12.5203 101.668 12.7713 101.337 13.102C101.007 13.4326 100.743 13.849 100.548 14.3511C100.364 14.841 100.272 15.4166 100.272 16.0779V28H96.3225V16.0779C96.3225 14.7063 96.0469 13.7021 95.4958 13.0652C94.9447 12.4162 94.1364 12.0916 93.071 12.0916C92.3362 12.0916 91.6565 12.2815 91.0319 12.6611C90.4073 13.0285 89.8318 13.5367 89.3051 14.1858V28H85.3556ZM129.979 16.5188C129.979 15.8575 129.881 15.2451 129.685 14.6818C129.501 14.1062 129.226 13.6102 128.858 13.1938C128.491 12.7652 128.032 12.4345 127.481 12.2019C126.942 11.9569 126.317 11.8345 125.607 11.8345C124.174 11.8345 123.047 12.2447 122.227 13.0652C121.406 13.8858 120.886 15.037 120.665 16.5188H129.979ZM120.555 18.9436C120.604 20.0091 120.77 20.9337 121.051 21.7175C121.333 22.489 121.706 23.132 122.172 23.6463C122.649 24.1607 123.213 24.5465 123.862 24.8036C124.523 25.0486 125.258 25.171 126.066 25.171C126.838 25.171 127.505 25.0853 128.069 24.9139C128.632 24.7302 129.122 24.5342 129.538 24.326C129.955 24.1056 130.31 23.9096 130.604 23.7382C130.898 23.5545 131.167 23.4626 131.412 23.4626C131.73 23.4626 131.975 23.5851 132.147 23.83L133.267 25.2813C132.802 25.8323 132.275 26.2977 131.687 26.6774C131.1 27.057 130.475 27.3693 129.814 27.6142C129.152 27.8469 128.473 28.0122 127.775 28.1102C127.077 28.2204 126.397 28.2755 125.736 28.2755C124.437 28.2755 123.231 28.0612 122.117 27.6326C121.015 27.1917 120.053 26.5488 119.233 25.7038C118.424 24.8587 117.788 23.8117 117.322 22.5625C116.869 21.3133 116.642 19.8744 116.642 18.2456C116.642 16.9474 116.845 15.735 117.249 14.6083C117.665 13.4816 118.253 12.5019 119.012 11.6691C119.784 10.8364 120.714 10.1812 121.804 9.70355C122.907 9.21368 124.15 8.96875 125.534 8.96875C126.685 8.96875 127.75 9.15857 128.73 9.53822C129.71 9.90562 130.555 10.4506 131.265 11.1731C131.975 11.8957 132.526 12.7836 132.918 13.8368C133.322 14.8777 133.524 16.0657 133.524 17.4005C133.524 18.0129 133.457 18.4231 133.322 18.6313C133.188 18.8395 132.943 18.9436 132.588 18.9436H120.555ZM142.994 23.2973C143.545 24.0076 144.145 24.5097 144.794 24.8036C145.456 25.0853 146.184 25.2261 146.98 25.2261C148.523 25.2261 149.724 24.6628 150.581 23.5361C151.45 22.4094 151.885 20.7316 151.885 18.5027C151.885 17.3516 151.787 16.3718 151.591 15.5636C151.395 14.743 151.114 14.0756 150.746 13.5612C150.379 13.0469 149.932 12.6734 149.405 12.4407C148.879 12.208 148.285 12.0916 147.623 12.0916C146.619 12.0916 145.75 12.3121 145.015 12.753C144.292 13.1816 143.619 13.8 142.994 14.6083V23.2973ZM142.792 11.9814C143.576 11.0629 144.464 10.322 145.456 9.75866C146.46 9.19531 147.623 8.91364 148.946 8.91364C149.999 8.91364 150.954 9.12796 151.812 9.55659C152.669 9.97297 153.404 10.5853 154.016 11.3936C154.628 12.2019 155.1 13.2061 155.431 14.4063C155.773 15.5942 155.945 16.9597 155.945 18.5027C155.945 19.8866 155.755 21.1786 155.375 22.3788C155.008 23.5667 154.475 24.6016 153.777 25.4833C153.079 26.3528 152.234 27.0386 151.242 27.5408C150.25 28.0306 149.13 28.2755 147.881 28.2755C146.778 28.2755 145.841 28.098 145.07 27.7428C144.311 27.3877 143.619 26.8978 142.994 26.2732V34.2274H139.045V9.26267H141.433C141.972 9.26267 142.314 9.51372 142.461 10.0158L142.792 11.9814Z" fill="#A0A0A0"/>
</svg>
